<svg width="172" height="28" viewBox="0 0 172 28" fill="none" xmlns="http://www.w3.org/2000/svg">
<path d="M37.5234 22V4.9375H43.5C45.5703 4.9375 47.1406 5.33594 48.2109 6.13281C49.2812 6.92187 49.8164 8.08203 49.8164 9.61328C49.8164 10.4492 49.6016 11.1875 49.1719 11.8281C48.7422 12.4609 48.1445 12.9258 47.3789 13.2227C48.2539 13.4414 48.9414 13.8828 49.4414 14.5469C49.9492 15.2109 50.2031 16.0234 50.2031 16.9844C50.2031 18.625 49.6797 19.8672 48.6328 20.7109C47.5859 21.5547 46.0938 21.9844 44.1562 22H37.5234ZM41.0391 14.5703V19.1758H44.0508C44.8789 19.1758 45.5234 18.9805 45.9844 18.5898C46.4531 18.1914 46.6875 17.6445 46.6875 16.9492C46.6875 15.3867 45.8789 14.5938 44.2617 14.5703H41.0391ZM41.0391 12.0859H43.6406C45.4141 12.0547 46.3008 11.3477 46.3008 9.96484C46.3008 9.19141 46.0742 8.63672 45.6211 8.30078C45.1758 7.95703 44.4688 7.78516 43.5 7.78516H41.0391V12.0859ZM66.7383 22H63.2227V14.6875H56.3672V22H52.8516V4.9375H56.3672V11.8516H63.2227V4.9375H66.7383V22ZM69.7734 20.3359C69.7734 19.7969 69.9531 19.3594 70.3125 19.0234C70.6797 18.6875 71.1367 18.5195 71.6836 18.5195C72.2383 18.5195 72.6953 18.6875 73.0547 19.0234C73.4219 19.3594 73.6055 19.7969 73.6055 20.3359C73.6055 20.8672 73.4258 21.3008 73.0664 21.6367C72.707 21.9648 72.2461 22.1289 71.6836 22.1289C71.1289 22.1289 70.6719 21.9648 70.3125 21.6367C69.9531 21.3008 69.7734 20.8672 69.7734 20.3359Z" fill="#69C5A5"/>
<path d="M81.3984 4.9375L85.7812 17.3125L90.1406 4.9375H94.7578V22H91.2305V17.3359L91.582 9.28516L86.9766 22H84.5625L79.9688 9.29688L80.3203 17.3359V22H76.8047V4.9375H81.3984ZM107.672 18.4844H101.508L100.336 22H96.5977L102.949 4.9375H106.207L112.594 22H108.855L107.672 18.4844ZM102.457 15.6367H106.723L104.578 9.25L102.457 15.6367ZM120.504 15.7539H117.703V22H114.188V4.9375H120.527C122.543 4.9375 124.098 5.38672 125.191 6.28516C126.285 7.18359 126.832 8.45312 126.832 10.0938C126.832 11.2578 126.578 12.2305 126.07 13.0117C125.57 13.7852 124.809 14.4023 123.785 14.8633L127.477 21.8359V22H123.703L120.504 15.7539ZM117.703 12.9062H120.539C121.422 12.9062 122.105 12.6836 122.59 12.2383C123.074 11.7852 123.316 11.1641 123.316 10.375C123.316 9.57031 123.086 8.9375 122.625 8.47656C122.172 8.01562 121.473 7.78516 120.527 7.78516H117.703V12.9062ZM134.859 15.1562L133.031 17.125V22H129.516V4.9375H133.031V12.6719L134.578 10.5508L138.926 4.9375H143.25L137.191 12.5195L143.426 22H139.242L134.859 15.1562ZM155.016 14.6055H148.266V19.1758H156.188V22H144.75V4.9375H156.164V7.78516H148.266V11.8516H155.016V14.6055ZM171.328 7.78516H166.102V22H162.586V7.78516H157.43V4.9375H171.328V7.78516Z" fill="white"/>
<path d="M6 4H12L6 23H0L6 4Z" fill="#C4C4C4"/>
<path d="M15 4H21L15 23H9L15 4Z" fill="#C4C4C4"/>
<path d="M24 4H30L24 23H18L24 4Z" fill="#C4C4C4"/>
</svg>
